<?xml version="1.0" encoding="utf-8"?>
<!-- Generator: Adobe Illustrator 23.0.1, SVG Export Plug-In . SVG Version: 6.00 Build 0)  -->
<svg version="1.1" id="Layer_1" xmlns="http://www.w3.org/2000/svg" xmlns:xlink="http://www.w3.org/1999/xlink" x="0px" y="0px"
	 viewBox="0 0 400 104" style="enable-background:new 0 0 400 104;" xml:space="preserve">
<style type="text/css">
	.st0{fill:#FFFFFF;}
</style>
<title>sakayka-white</title>
<g>
	<path class="st0" d="M40,24.3V34H26.9v39.9H14.8V34H1.7v-9.7H40z"/>
	<path class="st0" d="M56.7,71.1c-3.9-2.2-7-5.2-9.2-9.1C45.2,58.2,44,53.8,44,49c0-4.8,1.1-9.2,3.4-13.1c2.3-3.9,5.4-6.9,9.2-9
		c3.9-2.2,8.2-3.2,12.8-3.2s8.9,1.1,12.8,3.2c3.9,2.2,6.9,5.2,9.2,9c2.2,3.9,3.4,8.2,3.4,13.1c0,4.8-1.1,9.2-3.4,13.1
		c-2.3,3.9-5.3,6.9-9.2,9.1c-3.9,2.2-8.1,3.2-12.8,3.2S60.6,73.3,56.7,71.1z M79,59.4c2.4-2.6,3.6-6.1,3.6-10.4
		c0-4.4-1.2-7.9-3.6-10.5c-2.4-2.6-5.5-3.9-9.5-3.9c-4,0-7.2,1.3-9.6,3.9c-2.4,2.6-3.6,6.1-3.6,10.5c0,4.4,1.2,7.9,3.6,10.5
		c2.4,2.6,5.6,3.9,9.6,3.9C73.5,63.4,76.6,62.1,79,59.4z"/>
	<path class="st0" d="M131.9,44.1v10h-31.1v-10H131.9z"/>
	<path class="st0" d="M174.8,27.4c3.9,2.1,6.9,5,9.1,8.7c2.1,3.7,3.2,8.1,3.2,13c0,4.8-1.1,9.2-3.2,12.9c-2.1,3.8-5.2,6.7-9.1,8.8
		c-3.9,2.1-8.5,3.1-13.7,3.1h-18.6V24.3h18.6C166.3,24.3,170.9,25.4,174.8,27.4z M171,59.7c2.5-2.5,3.8-6,3.8-10.6
		c0-4.6-1.3-8.1-3.8-10.7c-2.5-2.5-6.1-3.8-10.7-3.8h-5.7v28.8h5.7C164.9,63.4,168.4,62.2,171,59.7z"/>
	<path class="st0" d="M204.4,71.1c-3.9-2.2-7-5.2-9.2-9.1c-2.3-3.9-3.4-8.2-3.4-13.1c0-4.8,1.1-9.2,3.4-13.1c2.3-3.9,5.4-6.9,9.2-9
		c3.9-2.2,8.2-3.2,12.8-3.2s8.9,1.1,12.8,3.2c3.9,2.2,6.9,5.2,9.2,9c2.2,3.9,3.4,8.2,3.4,13.1c0,4.8-1.1,9.2-3.4,13.1
		c-2.3,3.9-5.3,6.9-9.2,9.1c-3.9,2.2-8.1,3.2-12.8,3.2S208.3,73.3,204.4,71.1z M226.8,59.4c2.4-2.6,3.6-6.1,3.6-10.4
		c0-4.4-1.2-7.9-3.6-10.5c-2.4-2.6-5.5-3.9-9.5-3.9c-4,0-7.2,1.3-9.6,3.9c-2.4,2.6-3.6,6.1-3.6,10.5c0,4.4,1.2,7.9,3.6,10.5
		c2.4,2.6,5.6,3.9,9.6,3.9C221.2,63.4,224.4,62.1,226.8,59.4z"/>
	<path class="st0" d="M295.1,65.1h-18.5l-3,8.8H261l17.9-49.6h14l17.9,49.6h-12.8L295.1,65.1z M292,55.8l-6.1-18.1l-6.1,18.1H292z"
		/>
	<path class="st0" d="M352.1,48.2c-1.3,2.4-3.3,4.3-6.1,5.8c-2.7,1.5-6.1,2.2-10.2,2.2h-7.5v17.8h-12.1V24.3h19.6c4,0,7.3,0.7,10,2
		c2.7,1.4,4.8,3.2,6.1,5.6c1.4,2.4,2,5.2,2,8.3C354.1,43.2,353.4,45.8,352.1,48.2z M340.1,44.9c1.1-1.1,1.7-2.6,1.7-4.6
		c0-2-0.6-3.5-1.7-4.6c-1.1-1.1-2.8-1.6-5.2-1.6h-6.6v12.4h6.6C337.2,46.5,338.9,46,340.1,44.9z"/>
	<path class="st0" d="M396.1,48.2c-1.3,2.4-3.3,4.3-6.1,5.8c-2.7,1.5-6.1,2.2-10.2,2.2h-7.5v17.8h-12.1V24.3h19.6c4,0,7.3,0.7,10,2
		c2.7,1.4,4.8,3.2,6.1,5.6c1.4,2.4,2,5.2,2,8.3C398.1,43.2,397.4,45.8,396.1,48.2z M384.1,44.9c1.1-1.1,1.7-2.6,1.7-4.6
		c0-2-0.6-3.5-1.7-4.6c-1.1-1.1-2.8-1.6-5.2-1.6h-6.6v12.4h6.6C381.3,46.5,383,46,384.1,44.9z"/>
</g>
</svg>
