<?xml version="1.0" encoding="utf-8"?>
<!-- Generator: Adobe Illustrator 23.0.1, SVG Export Plug-In . SVG Version: 6.00 Build 0)  -->
<svg version="1.1" id="Layer_1" xmlns="http://www.w3.org/2000/svg" xmlns:xlink="http://www.w3.org/1999/xlink" x="0px" y="0px"
	 viewBox="0 0 1012.5 487.5" style="enable-background:new 0 0 1012.5 487.5;" xml:space="preserve">
<style type="text/css">
	.st0{fill:#FAC42E;}
	.st1{fill:none;stroke:#FFFFFF;stroke-width:3;}
	.st2{fill:#FFFFFF;}
	.st3{fill:none;stroke:#FFFFFF;stroke-width:2;}
	.st4{fill:none;stroke:#FFFFFF;}
</style>
<title>sidebar_bg</title>
<rect x="0.5" y="0.2" class="st0" width="1012.5" height="487.5"/>
<circle class="st1" cx="601.8" cy="295.5" r="6.5"/>
<circle class="st1" cx="517.4" cy="117.8" r="9.3"/>
<circle class="st2" cx="647.2" cy="96.6" r="5.6"/>
<circle class="st1" cx="682.9" cy="276" r="12.1"/>
<path class="st1" d="M496,290.4l9.4,9.4c1.2,1.2,1.2,3.3,0,4.5l-9.4,9.4c-1.2,1.2-3.3,1.2-4.5,0l-9.4-9.4c-1.2-1.2-1.2-3.3,0-4.5
	l9.4-9.4C492.6,289.2,494.6,289.2,496,290.4z"/>
<circle class="st1" cx="308.6" cy="310.2" r="6.5"/>
<circle class="st1" cx="315.5" cy="60.6" r="9.3"/>
<circle class="st2" cx="432.9" cy="70.4" r="5.6"/>
<circle class="st1" cx="375" cy="380.1" r="12.1"/>
<path class="st1" d="M954.5,245.2l9.4,9.4c1.2,1.2,1.2,3.3,0,4.5l-9.4,9.4c-1.2,1.2-3.3,1.2-4.5,0l-9.4-9.4c-1.2-1.2-1.2-3.3,0-4.5
	l9.4-9.4C951.2,243.9,953.2,243.9,954.5,245.2z"/>
<circle class="st1" cx="815.2" cy="282.5" r="6.5"/>
<circle class="st1" cx="822.1" cy="65.8" r="9.3"/>
<circle class="st2" cx="939.5" cy="75.6" r="5.6"/>
<circle class="st1" cx="939" cy="404.1" r="12.1"/>
<path class="st1" d="M218.2,222.6l9.4,9.4c1.2,1.2,1.2,3.3,0,4.5l-9.4,9.4c-1.2,1.2-3.3,1.2-4.5,0l-9.4-9.4c-1.2-1.2-1.2-3.3,0-4.5
	l9.4-9.4C214.8,221.3,216.8,221.3,218.2,222.6z"/>
<circle class="st1" cx="78.8" cy="259.8" r="6.5"/>
<circle class="st1" cx="85.8" cy="43.2" r="9.3"/>
<circle class="st2" cx="203.2" cy="53" r="5.6"/>
<circle class="st1" cx="202.5" cy="381.3" r="12.1"/>
<g>
	<path class="st3" d="M443.5,155.2l-22.2,10.6c-0.9,0.4-2.1,0-2.5-0.9l-14.4-30.3c-0.4-0.9,0-2.1,0.9-2.5l22.2-10.6
		c0.9-0.4,2.1,0,2.5,0.9l14.4,30.3C444.9,153.7,444.5,154.8,443.5,155.2z"/>
	<g>
		<line class="st4" x1="412.8" y1="138.5" x2="427.8" y2="131.4"/>
		<line class="st4" x1="417" y1="147.2" x2="431.9" y2="140.1"/>
		<line class="st4" x1="421.1" y1="155.9" x2="436" y2="148.8"/>
	</g>
</g>
<g>
	<path class="st3" d="M604.6,111.3l-24.3-3.8c-1-0.2-1.7-1.1-1.6-2.1l5.2-33.1c0.2-1,1.1-1.7,2.1-1.6l24.3,3.8
		c1,0.2,1.7,1.1,1.6,2.1l-5.2,33.1C606.6,110.8,605.6,111.5,604.6,111.3z"/>
	<g>
		<line class="st4" x1="588.6" y1="80.2" x2="604.9" y2="82.8"/>
		<line class="st4" x1="587.1" y1="89.7" x2="603.4" y2="92.3"/>
		<line class="st4" x1="585.7" y1="99.2" x2="602" y2="101.8"/>
	</g>
</g>
<g>
	<path class="st3" d="M453.7,389.3l-14.3-9c-0.9-0.6-1.1-1.7-0.6-2.6l12.4-19.8c0.6-0.9,1.7-1.1,2.6-0.6l14.3,9
		c0.9,0.6,1.1,1.7,0.6,2.6l-12.4,19.8C455.7,389.6,454.5,389.8,453.7,389.3z"/>
	<g>
		<line class="st4" x1="452.4" y1="364.2" x2="462.5" y2="370.6"/>
		<line class="st4" x1="448.7" y1="370.1" x2="458.8" y2="376.5"/>
		<line class="st4" x1="444.9" y1="376" x2="455.1" y2="382.4"/>
	</g>
</g>
</svg>
